<svg id="visual" viewBox="0 0 900 300" width="900" height="300" xmlns="http://www.w3.org/2000/svg" xmlns:xlink="http://www.w3.org/1999/xlink" version="1.1"><path d="M0 245L30 230.3C60 215.7 120 186.3 180 187.2C240 188 300 219 360 207.3C420 195.7 480 141.3 540 125.7C600 110 660 133 720 153.8C780 174.7 840 193.3 870 202.7L900 212L900 301L870 301C840 301 780 301 720 301C660 301 600 301 540 301C480 301 420 301 360 301C300 301 240 301 180 301C120 301 60 301 30 301L0 301Z" fill="#a4afb8"></path></svg>