<?xml version="1.0" encoding="utf-8"?>
<svg id="visual" viewBox="0 0 900 300" width="900" height="300" version="1.1" xmlns="http://www.w3.org/2000/svg">
  <defs/>
  <path d="M 0 176.511 L 30.001 191.211 C 60.003 205.811 119.996 235.211 180 234.311 C 240.003 233.511 299.997 202.511 359.999 214.211 C 420.003 225.811 480.006 280.211 540 295.811 C 600.002 311.511 660.006 288.511 720 267.711 C 780.003 246.811 840.005 228.211 869.999 218.811 L 900 209.511 L 900 120.511 L 869.999 120.511 C 840.005 120.511 780.003 120.511 720 120.511 C 660.006 120.511 600.002 120.511 540 120.511 C 480.006 120.511 420.003 120.511 359.999 120.511 C 299.997 120.511 240.003 120.511 180 120.511 C 119.996 120.511 60.003 120.511 30.001 120.511 L 0 120.511 L 0 176.511 Z" style="fill: rgb(105, 117, 101); transform-box: fill-box; transform-origin: 50% 50%;" transform="matrix(-1, 0, 0, -1, -0.000037, -0.000008)"/>
</svg>