<?xml version="1.0" encoding="utf-8"?>
<svg id="visual" viewBox="0 0 900 300" width="900" height="300" version="1.1" xmlns="http://www.w3.org/2000/svg">
  <defs/>
  <path d="M 0 167.598 L 29.995 197.532 C 60.002 227.368 119.996 287.236 179.998 298.437 C 239.998 309.637 300 272.368 360.002 256.112 C 420.004 239.956 479.996 244.912 539.998 236.685 C 599.999 228.359 660.002 206.949 720.003 208.039 C 779.995 209.229 839.998 233.017 870.002 244.912 L 900 256.806 L 900 131.915 L 870.002 131.915 C 839.998 131.915 779.995 131.915 720.003 131.915 C 660.002 131.915 599.999 131.915 539.998 131.915 C 479.996 131.915 420.004 131.915 360.002 131.915 C 300 131.915 239.998 131.915 179.998 131.915 C 119.996 131.915 60.002 131.915 29.995 131.915 L 0 131.915 L 0 167.598 Z" style="fill: rgb(60, 61, 55); transform-box: fill-box; transform-origin: 50% 50%;" transform="matrix(-1, 0, 0, -1, 0.000026, -0.000003)"/>
</svg>