<?xml version="1.0" encoding="utf-8"?>
<svg id="visual" viewBox="0 0 900 300" width="900" height="300" version="1.1" xmlns="http://www.w3.org/2000/svg">
  <defs/>
  <path d="M0 279L21.5 272.5C43 266 86 253 128.8 244.5C171.7 236 214.3 232 257.2 240.3C300 248.7 343 269.3 385.8 271.8C428.7 274.3 471.3 258.7 514.2 259.2C557 259.7 600 276.3 642.8 269C685.7 261.7 728.3 230.3 771.2 214.3C814 198.3 857 197.7 878.5 197.3L900 197L900 301L878.5 301C857 301 814 301 771.2 301C728.3 301 685.7 301 642.8 301C600 301 557 301 514.2 301C471.3 301 428.7 301 385.8 301C343 301 300 301 257.2 301C214.3 301 171.7 301 128.8 301C86 301 43 301 21.5 301L0 301Z" style="fill: rgb(236, 223, 204);"/>
</svg>